<svg width="400" height="60" viewBox="0 0 400 60" fill="none" xmlns="http://www.w3.org/2000/svg">
<path d="M265.287 43.1029V17.7998H273.122C275.949 17.7998 278.173 18.4762 279.794 19.829C281.428 21.17 282.245 23.011 282.245 25.3519C282.245 26.8576 281.887 28.1693 281.172 29.2868C280.468 30.4043 279.46 31.2748 278.149 31.8983L286.198 43.1029H279.973L273.158 32.8687H270.493V43.1029H265.287ZM270.493 28.5104H273.426C274.523 28.5104 275.376 28.234 275.984 27.6811C276.592 27.1164 276.897 26.3165 276.897 25.2813C276.897 24.3167 276.592 23.558 275.984 23.0051C275.376 22.4522 274.523 22.1758 273.426 22.1758H270.493V28.5104Z" fill="#E10E17"/>
<path d="M287.415 33.998C287.415 32.1865 287.778 30.5455 288.506 29.075C289.233 27.5928 290.324 26.4047 291.779 25.5107C293.234 24.6167 294.939 24.1697 296.895 24.1697C299.435 24.1697 301.486 24.9343 303.048 26.4636C304.611 27.981 305.392 29.9396 305.392 32.3394C305.392 33.2452 305.296 34.1098 305.105 34.9332H292.173C292.316 36.4272 292.882 37.5976 293.872 38.4446C294.862 39.2798 296.15 39.6974 297.736 39.6974C298.726 39.6974 299.626 39.5092 300.437 39.1328C301.248 38.7446 301.904 38.2152 302.404 37.5447L305.732 40.1385C304.861 41.2913 303.728 42.1971 302.333 42.8559C300.938 43.5029 299.381 43.8264 297.664 43.8264C296.066 43.8264 294.611 43.5676 293.3 43.05C291.988 42.5206 290.909 41.8089 290.062 40.9149C289.215 40.0091 288.559 38.9681 288.094 37.7917C287.641 36.6036 287.415 35.3391 287.415 33.998ZM292.477 31.4748H300.777C300.741 30.5102 300.377 29.6926 299.686 29.0221C298.994 28.3398 298.064 27.9987 296.895 27.9987C294.558 27.9987 293.085 29.1574 292.477 31.4748ZM294.999 21.9993L298.809 16H303.853L299.471 21.9993H294.999Z" fill="#E10E17"/>
<path d="M309.953 43.1029V24.8931H314.604V26.34C316.118 24.8931 317.937 24.1697 320.06 24.1697C322.147 24.1697 323.864 24.8755 325.211 26.2871C326.559 27.687 327.233 29.6809 327.233 32.2688V43.1029H322.51V32.4453C322.51 31.2336 322.188 30.2749 321.544 29.5691C320.9 28.8633 320.012 28.5104 318.879 28.5104C317.102 28.5104 315.677 29.4103 314.604 31.2101V43.1029H309.953Z" fill="#E10E17"/>
<path d="M332.456 38.9563C331.621 37.4624 331.204 35.8096 331.204 33.998C331.204 32.1865 331.621 30.5337 332.456 29.0397C333.302 27.5458 334.501 26.3636 336.051 25.4931C337.601 24.6108 339.354 24.1697 341.31 24.1697C343.266 24.1697 345.019 24.6108 346.569 25.4931C348.119 26.3636 349.312 27.5458 350.147 29.0397C350.993 30.5337 351.417 32.1865 351.417 33.998C351.417 35.8096 350.993 37.4624 350.147 38.9563C349.312 40.4503 348.119 41.6384 346.569 42.5206C345.019 43.3911 343.266 43.8264 341.31 43.8264C339.354 43.8264 337.601 43.3911 336.051 42.5206C334.501 41.6384 333.302 40.4503 332.456 38.9563ZM337.554 30.0632C336.54 31.0983 336.033 32.41 336.033 33.998C336.033 35.5861 336.54 36.8977 337.554 37.9329C338.567 38.9681 339.843 39.4857 341.382 39.4857C342.872 39.4857 344.113 38.9622 345.102 37.9152C346.092 36.8683 346.587 35.5626 346.587 33.998C346.587 32.41 346.092 31.0983 345.102 30.0632C344.113 29.028 342.872 28.5104 341.382 28.5104C339.843 28.5104 338.567 29.028 337.554 30.0632Z" fill="#E10E17"/>
<path d="M352.812 24.8931H357.803L362.597 37.8976L367.355 24.8931H372.381L365.637 43.1029H359.52L352.812 24.8931Z" fill="#E10E17"/>
<path d="M374.832 28.2104L378.123 17.7998H383.4L379.161 28.2104H374.832Z" fill="#E10E17"/>
<path d="M16 43.1029L25.5828 17.7998H32.3191L41.9196 43.1029H36.4564L34.0341 36.5213H23.8855L21.4633 43.1029H16ZM25.4768 32.1453H32.4429L28.9598 22.6522L25.4768 32.1453Z" fill="#253472"/>
<path d="M46.3221 43.1029V24.8931H50.919V26.2695C52.357 24.8696 54.0308 24.1697 55.9403 24.1697C57.1543 24.1697 58.2564 24.4403 59.2465 24.9814C60.2484 25.5225 61.0441 26.3106 61.6334 27.3458C62.4231 26.3695 63.2895 25.5989 64.2324 25.0343C65.1754 24.4579 66.3011 24.1697 67.6094 24.1697C69.5779 24.1697 71.1927 24.8402 72.4539 26.1812C73.7151 27.5223 74.3457 29.4279 74.3457 31.8983V43.1029H69.7134V32.0747C69.7134 30.9689 69.4246 30.0985 68.8471 29.4632C68.2695 28.828 67.468 28.5104 66.4425 28.5104C64.9573 28.5104 63.6902 29.375 62.6412 31.1042C62.6648 31.2689 62.6766 31.5336 62.6766 31.8983V43.1029H58.0089V32.0747C58.0089 30.9572 57.726 30.0867 57.1602 29.4632C56.6062 28.828 55.8165 28.5104 54.791 28.5104C54.296 28.5104 53.8363 28.5927 53.412 28.7574C52.9876 28.9104 52.6163 29.1397 52.2981 29.4456C51.9916 29.7397 51.7382 30.0161 51.5378 30.2749C51.3375 30.5337 51.1312 30.8454 50.919 31.2101V43.1029H46.3221Z" fill="#253472"/>
<path d="M79.5968 43.1029V16H84.1937V26.1989C85.6907 24.8461 87.5825 24.1697 89.8692 24.1697C91.2836 24.1697 92.5802 24.4344 93.7589 24.9637C94.9376 25.4813 95.9159 26.193 96.6939 27.0988C97.4718 27.9928 98.0729 29.0339 98.4973 30.222C98.9334 31.4101 99.1515 32.6688 99.1515 33.998C99.1515 35.3273 98.9334 36.586 98.4973 37.7741C98.0729 38.9622 97.4718 40.0091 96.6939 40.9149C95.9159 41.8089 94.9376 42.5206 93.7589 43.05C92.5802 43.5676 91.2836 43.8264 89.8692 43.8264C87.5825 43.8264 85.6907 43.15 84.1937 41.7972V43.1029H79.5968ZM84.1937 36.786L84.2291 36.7507C85.4785 38.574 87.1405 39.4857 89.215 39.4857C90.7591 39.4857 92.0026 38.974 92.9456 37.9505C93.8886 36.9154 94.36 35.5979 94.36 33.998C94.36 32.3982 93.8886 31.0866 92.9456 30.0632C92.0026 29.028 90.7591 28.5104 89.215 28.5104C87.1405 28.5104 85.4785 29.4221 84.2291 31.2454L84.1937 31.2101V36.786Z" fill="#253472"/>
<path d="M101.945 38.3034C101.945 36.8918 102.47 35.692 103.519 34.7038C104.579 33.7039 106.082 33.0452 108.027 32.7276L113.543 31.7924V31.316C113.543 30.3631 113.219 29.6044 112.571 29.0397C111.923 28.4633 111.074 28.1751 110.025 28.1751C109.129 28.1751 108.328 28.3634 107.62 28.7398C106.913 29.1044 106.353 29.6397 105.941 30.3455L102.528 27.7869C103.354 26.6459 104.426 25.7578 105.746 25.1225C107.066 24.4873 108.54 24.1697 110.166 24.1697C112.712 24.1697 114.681 24.8402 116.072 26.1812C117.474 27.5105 118.176 29.2221 118.176 31.316V43.1029H113.543V41.409C112.954 42.1383 112.164 42.7206 111.174 43.1558C110.196 43.6029 109.176 43.8264 108.115 43.8264C106.265 43.8264 104.774 43.3323 103.642 42.3442C102.511 41.356 101.945 40.0091 101.945 38.3034ZM106.507 38.1093C106.507 38.6975 106.736 39.1857 107.196 39.5739C107.668 39.9503 108.286 40.1385 109.053 40.1385C110.974 40.1385 112.471 39.2857 113.543 37.58V35.0744L109.229 35.8331C107.414 36.1272 106.507 36.8859 106.507 38.1093Z" fill="#253472"/>
<path d="M121.853 40.4561L124.894 37.6506C126.167 39.2622 127.564 40.068 129.085 40.068C129.792 40.068 130.34 39.8915 130.729 39.5386C131.13 39.1857 131.33 38.7328 131.33 38.1799C131.33 37.7564 131.171 37.3859 130.853 37.0683C130.546 36.7507 130.14 36.486 129.633 36.2742C129.138 36.0507 128.59 35.8331 127.988 35.6214C127.387 35.3979 126.78 35.1332 126.167 34.8273C125.566 34.5215 125.012 34.1686 124.505 33.7686C124.01 33.3569 123.604 32.8099 123.285 32.1276C122.979 31.4454 122.826 30.6572 122.826 29.7632C122.826 28.1516 123.433 26.8165 124.647 25.7578C125.873 24.699 127.423 24.1697 129.297 24.1697C130.664 24.1697 131.949 24.4579 133.151 25.0343C134.353 25.6107 135.302 26.3577 135.998 27.2752L132.921 30.0279C131.825 28.628 130.629 27.9281 129.332 27.9281C128.66 27.9281 128.142 28.0751 127.776 28.3692C127.423 28.6633 127.246 29.0692 127.246 29.5867C127.246 29.9985 127.399 30.3631 127.705 30.6807C128.024 30.9866 128.43 31.2513 128.925 31.4748C129.432 31.6865 129.986 31.9041 130.587 32.1276C131.2 32.3394 131.807 32.5982 132.409 32.904C133.01 33.1981 133.558 33.551 134.053 33.9627C134.56 34.3627 134.966 34.8979 135.273 35.5684C135.591 36.239 135.75 37.0153 135.75 37.8976C135.715 39.7327 135.061 41.1796 133.788 42.2383C132.515 43.297 130.97 43.8264 129.155 43.8264C126.173 43.8264 123.739 42.703 121.853 40.4561Z" fill="#253472"/>
<path d="M138.155 40.4561L141.196 37.6506C142.469 39.2622 143.865 40.068 145.386 40.068C146.093 40.068 146.641 39.8915 147.03 39.5386C147.431 39.1857 147.631 38.7328 147.631 38.1799C147.631 37.7564 147.472 37.3859 147.154 37.0683C146.848 36.7507 146.441 36.486 145.934 36.2742C145.439 36.0507 144.891 35.8331 144.29 35.6214C143.689 35.3979 143.082 35.1332 142.469 34.8273C141.868 34.5215 141.314 34.1686 140.807 33.7686C140.312 33.3569 139.905 32.8099 139.587 32.1276C139.28 31.4454 139.127 30.6572 139.127 29.7632C139.127 28.1516 139.734 26.8165 140.948 25.7578C142.174 24.699 143.724 24.1697 145.598 24.1697C146.965 24.1697 148.25 24.4579 149.453 25.0343C150.655 25.6107 151.604 26.3577 152.299 27.2752L149.223 30.0279C148.126 28.628 146.93 27.9281 145.634 27.9281C144.962 27.9281 144.443 28.0751 144.078 28.3692C143.724 28.6633 143.547 29.0692 143.547 29.5867C143.547 29.9985 143.7 30.3631 144.007 30.6807C144.325 30.9866 144.732 31.2513 145.227 31.4748C145.734 31.6865 146.288 31.9041 146.889 32.1276C147.502 32.3394 148.109 32.5982 148.71 32.904C149.311 33.1981 149.859 33.551 150.354 33.9627C150.861 34.3627 151.268 34.8979 151.574 35.5684C151.892 36.239 152.052 37.0153 152.052 37.8976C152.016 39.7327 151.362 41.1796 150.089 42.2383C148.816 43.297 147.272 43.8264 145.457 43.8264C142.475 43.8264 140.041 42.703 138.155 40.4561Z" fill="#253472"/>
<path d="M155.199 38.3034C155.199 36.8918 155.723 35.692 156.772 34.7038C157.833 33.7039 159.336 33.0452 161.281 32.7276L166.797 31.7924V31.316C166.797 30.3631 166.473 29.6044 165.825 29.0397C165.176 28.4633 164.328 28.1751 163.279 28.1751C162.383 28.1751 161.581 28.3634 160.874 28.7398C160.167 29.1044 159.607 29.6397 159.194 30.3455L155.782 27.7869C156.607 26.6459 157.68 25.7578 159 25.1225C160.32 24.4873 161.794 24.1697 163.42 24.1697C165.966 24.1697 167.935 24.8402 169.325 26.1812C170.728 27.5105 171.429 29.2221 171.429 31.316V43.1029H166.797V41.409C166.208 42.1383 165.418 42.7206 164.428 43.1558C163.45 43.6029 162.43 43.8264 161.369 43.8264C159.519 43.8264 158.028 43.3323 156.896 42.3442C155.764 41.356 155.199 40.0091 155.199 38.3034ZM159.76 38.1093C159.76 38.6975 159.99 39.1857 160.45 39.5739C160.921 39.9503 161.54 40.1385 162.306 40.1385C164.228 40.1385 165.724 39.2857 166.797 37.58V35.0744L162.483 35.8331C160.668 36.1272 159.76 36.8859 159.76 38.1093Z" fill="#253472"/>
<path d="M176.486 38.9034C175.755 37.4212 175.39 35.7861 175.39 33.998C175.39 32.21 175.755 30.5808 176.486 29.1103C177.217 27.6281 178.295 26.4342 179.722 25.5284C181.148 24.6226 182.792 24.1697 184.654 24.1697C186.918 24.1697 188.803 24.8284 190.312 26.1459V16H194.944V43.1029H190.312V41.8325C188.792 43.1617 186.906 43.8264 184.654 43.8264C182.792 43.8264 181.148 43.3735 179.722 42.4677C178.295 41.5619 177.217 40.3738 176.486 38.9034ZM181.596 30.0455C180.665 31.0689 180.199 32.3864 180.199 33.998C180.199 35.6096 180.665 36.9271 181.596 37.9505C182.539 38.974 183.776 39.4857 185.309 39.4857C187.418 39.4857 189.086 38.5858 190.312 36.786V31.2101C189.075 29.4103 187.407 28.5104 185.309 28.5104C183.776 28.5104 182.539 29.0221 181.596 30.0455Z" fill="#253472"/>
<path d="M199.152 33.998C199.152 32.1865 199.512 30.5455 200.231 29.075C200.95 27.5928 202.028 26.4047 203.466 25.5107C204.905 24.6167 206.59 24.1697 208.523 24.1697C211.034 24.1697 213.061 24.9343 214.605 26.4636C216.149 27.981 216.921 29.9396 216.921 32.3394C216.921 33.2452 216.827 34.1098 216.638 34.9332H203.855C203.997 36.4272 204.557 37.5976 205.535 38.4446C206.513 39.2798 207.786 39.6974 209.354 39.6974C210.332 39.6974 211.222 39.5092 212.024 39.1328C212.825 38.7446 213.474 38.2152 213.969 37.5447L217.257 40.1385C216.397 41.2913 215.277 42.1971 213.898 42.8559C212.519 43.5029 210.981 43.8264 209.283 43.8264C207.704 43.8264 206.266 43.5676 204.969 43.05C203.673 42.5206 202.606 41.8089 201.769 40.9149C200.932 40.0091 200.284 38.9681 199.824 37.7917C199.376 36.6036 199.152 35.3391 199.152 33.998ZM204.156 31.4748H212.36C212.324 30.5102 211.965 29.6926 211.281 29.0221C210.598 28.3398 209.678 27.9987 208.523 27.9987C206.213 27.9987 204.757 29.1574 204.156 31.4748Z" fill="#253472"/>
<path d="M220.811 35.0038V24.8931H225.443V35.2332C225.443 36.5742 225.779 37.6212 226.451 38.374C227.135 39.1151 228.101 39.4857 229.351 39.4857C230.588 39.4857 231.543 39.1092 232.215 38.3564C232.899 37.6035 233.24 36.5625 233.24 35.2332V24.8931H237.873V35.0038C237.873 37.7329 237.113 39.8856 235.592 41.4619C234.083 43.0382 231.991 43.8264 229.315 43.8264C226.652 43.8264 224.565 43.0441 223.057 41.4796C221.56 39.9033 220.811 37.7447 220.811 35.0038Z" fill="#253472"/>
<path d="M242.965 43.1029V24.8931H247.562V26.6929C248.964 25.246 250.567 24.5226 252.371 24.5226C252.878 24.5226 253.408 24.6108 253.962 24.7873V29.5867C253.278 29.4221 252.607 29.3397 251.946 29.3397C250.921 29.3397 250.031 29.5691 249.277 30.0279C248.534 30.4866 247.962 31.0395 247.562 31.6865V43.1029H242.965Z" fill="#253472"/>
</svg>
