<svg width="352" height="153" viewBox="0 0 352 153" fill="none" xmlns="http://www.w3.org/2000/svg">
<path fill-rule="evenodd" clip-rule="evenodd" d="M90.7779 22.9087C92.1396 23.9074 93.4457 24.9588 94.778 26.0044L98.6722 29.2259C103.837 33.5487 108.342 38.5803 113.041 43.3863C117.74 48.1924 122.341 53.092 126.896 58.0299C131.4 63.0088 135.893 68.008 140.235 73.1304L139.914 73.4233C135.065 68.7783 130.245 64.1129 125.328 59.5499C120.465 54.938 115.552 50.383 110.588 45.8844C105.638 41.3655 100.382 37.1862 95.6831 32.4124C93.3249 30.0372 90.9663 27.6562 88.6995 25.1755C86.4327 22.6949 84.1685 20.1967 82.0666 17.514L82.3613 17.186C85.2638 18.9453 88.0722 20.8535 90.7749 22.9028" fill="#253472"/>
<path fill-rule="evenodd" clip-rule="evenodd" d="M16.0768 77.512C20.7138 71.6545 25.7342 66.2069 30.9107 60.9091C36.0874 55.611 41.8182 50.8721 47.2424 45.8321L63.6536 30.8428C69.1751 25.8961 74.6552 20.9056 80.2121 16L80.5069 16.3104C75.4215 21.7022 70.2597 27.0149 65.1362 32.3686L49.6212 48.2774C44.4123 53.5492 39.4805 59.0873 34.0266 64.0925C28.573 69.0976 22.9366 73.9389 16.9286 78.3906L16 77.5732C16.0241 77.5534 16.0467 77.5318 16.0679 77.509" fill="#253472"/>
<path fill-rule="evenodd" clip-rule="evenodd" d="M57.3981 67.406C57.2031 68.7017 57.0673 69.9959 56.914 71.3012L56.5567 75.2076C56.1103 80.4162 56.4124 85.6535 56.4848 90.8731C56.5573 96.0927 56.734 101.311 56.9576 106.524C57.2308 111.732 57.5217 116.945 57.962 122.143L58.2978 122.129C58.3956 116.915 58.4662 111.707 58.6459 106.502C58.7688 101.3 58.9508 96.1009 59.1916 90.9053C59.4132 85.7065 59.988 80.527 59.9333 75.325C59.9171 72.7258 59.8979 70.1231 59.774 67.5159C59.6502 64.9086 59.5153 62.2932 59.1907 59.665L58.8502 59.6458C58.232 62.204 57.7468 64.7927 57.3966 67.4011" fill="#253472"/>
<path d="M78.1177 136.214V108.707H86.6084C89.6712 108.707 92.0814 109.442 93.839 110.912C95.6095 112.37 96.4948 114.372 96.4948 116.916C96.4948 118.553 96.1071 119.979 95.3317 121.194C94.5692 122.409 93.4772 123.355 92.0556 124.033L100.779 136.214H94.0329L86.6471 125.088H83.7587V136.214H78.1177ZM83.7587 120.35H86.9379C88.1269 120.35 89.0509 120.05 89.71 119.448C90.3691 118.835 90.6986 117.965 90.6986 116.84C90.6986 115.791 90.3691 114.966 89.71 114.365C89.0509 113.764 88.1269 113.464 86.9379 113.464H83.7587V120.35Z" fill="#E10E17"/>
<path d="M102.097 126.316C102.097 124.346 102.491 122.562 103.28 120.964C104.068 119.353 105.25 118.061 106.827 117.089C108.404 116.117 110.252 115.631 112.371 115.631C115.124 115.631 117.347 116.462 119.04 118.125C120.733 119.775 121.579 121.904 121.579 124.513C121.579 125.497 121.476 126.437 121.269 127.332H107.254C107.409 128.956 108.022 130.229 109.095 131.149C110.168 132.057 111.563 132.511 113.282 132.511C114.355 132.511 115.331 132.307 116.209 131.898C117.088 131.476 117.799 130.9 118.342 130.171L121.947 132.991C121.004 134.244 119.776 135.229 118.264 135.945C116.752 136.648 115.066 137 113.205 137C111.473 137 109.896 136.719 108.475 136.156C107.053 135.581 105.884 134.807 104.966 133.835C104.049 132.85 103.338 131.719 102.834 130.44C102.343 129.148 102.097 127.773 102.097 126.316ZM107.583 123.573H116.578C116.539 122.524 116.145 121.635 115.395 120.906C114.646 120.165 113.638 119.794 112.371 119.794C109.838 119.794 108.242 121.053 107.583 123.573ZM110.316 113.272L114.445 106.75H119.912L115.163 113.272H110.316Z" fill="#E10E17"/>
<path d="M126.522 136.214V116.418H131.562V117.991C133.204 116.418 135.175 115.631 137.475 115.631C139.737 115.631 141.598 116.399 143.058 117.933C144.518 119.455 145.248 121.622 145.248 124.436V136.214H140.131V124.628C140.131 123.31 139.782 122.268 139.084 121.501C138.386 120.734 137.423 120.35 136.196 120.35C134.27 120.35 132.726 121.328 131.562 123.285V136.214H126.522Z" fill="#E10E17"/>
<path d="M150.909 131.706C150.004 130.082 149.552 128.285 149.552 126.316C149.552 124.346 150.004 122.55 150.909 120.925C151.826 119.301 153.125 118.016 154.805 117.07C156.485 116.111 158.385 115.631 160.504 115.631C162.624 115.631 164.524 116.111 166.204 117.07C167.884 118.016 169.176 119.301 170.081 120.925C170.998 122.55 171.457 124.346 171.457 126.316C171.457 128.285 170.998 130.082 170.081 131.706C169.176 133.33 167.884 134.621 166.204 135.581C164.524 136.527 162.624 137 160.504 137C158.385 137 156.485 136.527 154.805 135.581C153.125 134.621 151.826 133.33 150.909 131.706ZM156.434 122.038C155.335 123.163 154.786 124.589 154.786 126.316C154.786 128.042 155.335 129.468 156.434 130.593C157.532 131.719 158.915 132.281 160.582 132.281C162.197 132.281 163.541 131.712 164.614 130.574C165.687 129.436 166.223 128.016 166.223 126.316C166.223 124.589 165.687 123.163 164.614 122.038C163.541 120.913 162.197 120.35 160.582 120.35C158.915 120.35 157.532 120.913 156.434 122.038Z" fill="#E10E17"/>
<path d="M172.969 116.418H178.378L183.573 130.555L188.729 116.418H194.176L186.868 136.214H180.239L172.969 116.418Z" fill="#E10E17"/>
<path d="M196.832 120.024L200.399 108.707H206.118L201.523 120.024H196.832Z" fill="#E10E17"/>
<path d="M78.1177 98.401L88.5027 70.8941H95.8029L106.207 98.401H100.286L97.6615 91.2462H86.6633L84.0383 98.401H78.1177ZM88.3878 86.489H95.937L92.1624 76.1691L88.3878 86.489Z" fill="#253472"/>
<path d="M110.978 98.401V78.6052H115.96V80.1014C117.518 78.5796 119.332 77.8188 121.401 77.8188C122.717 77.8188 123.911 78.1129 124.984 78.7011C126.07 79.2894 126.932 80.1462 127.571 81.2715C128.427 80.2101 129.366 79.3725 130.388 78.7587C131.41 78.1321 132.63 77.8188 134.047 77.8188C136.181 77.8188 137.931 78.5477 139.297 80.0055C140.664 81.4633 141.348 83.535 141.348 86.2205V98.401H136.328V86.4123C136.328 85.2102 136.015 84.2639 135.389 83.5734C134.763 82.8828 133.894 82.5375 132.783 82.5375C131.173 82.5375 129.8 83.4774 128.663 85.3573C128.689 85.5363 128.702 85.824 128.702 86.2205V98.401H123.643V86.4123C123.643 85.1974 123.337 84.2511 122.724 83.5734C122.123 82.8828 121.267 82.5375 120.156 82.5375C119.62 82.5375 119.121 82.627 118.661 82.8061C118.202 82.9723 117.799 83.2217 117.454 83.5542C117.122 83.8739 116.848 84.1744 116.63 84.4557C116.413 84.7371 116.19 85.0759 115.96 85.4724V98.401H110.978Z" fill="#253472"/>
<path d="M147.038 98.401V68.9375H152.02V80.0247C153.642 78.5541 155.693 77.8188 158.171 77.8188C159.703 77.8188 161.109 78.1065 162.386 78.682C163.663 79.2446 164.724 80.0183 165.567 81.003C166.41 81.9749 167.061 83.1066 167.521 84.3982C167.994 85.6898 168.23 87.0581 168.23 88.5031C168.23 89.9482 167.994 91.3165 167.521 92.6081C167.061 93.8997 166.41 95.0378 165.567 96.0225C164.724 96.9944 163.663 97.768 162.386 98.3435C161.109 98.9062 159.703 99.1875 158.171 99.1875C155.693 99.1875 153.642 98.4522 152.02 96.9816V98.401H147.038ZM152.02 91.5339L152.058 91.4955C153.412 93.4777 155.213 94.4687 157.462 94.4687C159.135 94.4687 160.483 93.9125 161.505 92.7999C162.526 91.6746 163.037 90.2423 163.037 88.5031C163.037 86.764 162.526 85.3381 161.505 84.2255C160.483 83.1002 159.135 82.5375 157.462 82.5375C155.213 82.5375 153.412 83.5286 152.058 85.5107L152.02 85.4724V91.5339Z" fill="#253472"/>
<path d="M171.257 93.1835C171.257 91.649 171.826 90.3446 172.963 89.2704C174.112 88.1834 175.741 87.4673 177.849 87.122L183.827 86.1054V85.5875C183.827 84.5516 183.475 83.7268 182.773 83.113C182.07 82.4864 181.151 82.1731 180.014 82.1731C179.043 82.1731 178.174 82.3777 177.408 82.7869C176.641 83.1833 176.035 83.7652 175.588 84.5325L171.89 81.7511C172.784 80.5106 173.946 79.5451 175.377 78.8546C176.807 78.164 178.404 77.8188 180.167 77.8188C182.926 77.8188 185.059 78.5477 186.567 80.0055C188.087 81.4506 188.847 83.3112 188.847 85.5875V98.401H183.827V96.5596C183.188 97.3524 182.332 97.9854 181.259 98.4586C180.199 98.9445 179.094 99.1875 177.944 99.1875C175.939 99.1875 174.323 98.6504 173.097 97.5762C171.87 96.502 171.257 95.0378 171.257 93.1835ZM176.201 92.9725C176.201 93.6119 176.45 94.1426 176.948 94.5646C177.459 94.9739 178.13 95.1785 178.96 95.1785C181.042 95.1785 182.664 94.2513 183.827 92.3971V89.6732L179.151 90.4981C177.184 90.8178 176.201 91.6426 176.201 92.9725Z" fill="#253472"/>
<path d="M192.832 95.5237L196.128 92.4738C197.507 94.2258 199.021 95.1017 200.669 95.1017C201.435 95.1017 202.029 94.9099 202.451 94.5263C202.885 94.1426 203.102 93.6503 203.102 93.0493C203.102 92.5889 202.93 92.1861 202.585 91.8408C202.253 91.4955 201.812 91.2078 201.263 90.9776C200.726 90.7346 200.132 90.4981 199.481 90.2679C198.829 90.0249 198.172 89.7372 197.507 89.4047C196.856 89.0722 196.255 88.6886 195.706 88.2538C195.17 87.8062 194.729 87.2115 194.384 86.4698C194.052 85.7281 193.886 84.8713 193.886 83.8995C193.886 82.1475 194.544 80.6961 195.859 79.5451C197.188 78.3942 198.868 77.8188 200.899 77.8188C202.38 77.8188 203.773 78.1321 205.076 78.7587C206.379 79.3853 207.407 80.1973 208.161 81.1948L204.827 84.1872C203.639 82.6654 202.342 81.9045 200.937 81.9045C200.209 81.9045 199.647 82.0644 199.251 82.3841C198.868 82.7038 198.676 83.145 198.676 83.7076C198.676 84.1552 198.842 84.5516 199.174 84.8969C199.519 85.2294 199.96 85.5171 200.496 85.7601C201.046 85.9903 201.646 86.2269 202.297 86.4698C202.962 86.7 203.62 86.9814 204.271 87.3138C204.922 87.6335 205.516 88.0172 206.053 88.4648C206.602 88.8996 207.043 89.4814 207.375 90.2103C207.72 90.9392 207.892 91.7832 207.892 92.7423C207.854 94.7373 207.145 96.3102 205.766 97.4611C204.386 98.612 202.713 99.1875 200.745 99.1875C197.514 99.1875 194.876 97.9662 192.832 95.5237Z" fill="#253472"/>
<path d="M210.498 95.5237L213.794 92.4738C215.173 94.2258 216.687 95.1017 218.335 95.1017C219.101 95.1017 219.695 94.9099 220.117 94.5263C220.551 94.1426 220.768 93.6503 220.768 93.0493C220.768 92.5889 220.596 92.1861 220.251 91.8408C219.919 91.4955 219.478 91.2078 218.929 90.9776C218.392 90.7346 217.798 90.4981 217.147 90.2679C216.495 90.0249 215.838 89.7372 215.173 89.4047C214.522 89.0722 213.922 88.6886 213.372 88.2538C212.836 87.8062 212.395 87.2115 212.05 86.4698C211.718 85.7281 211.552 84.8713 211.552 83.8995C211.552 82.1475 212.21 80.6961 213.526 79.5451C214.854 78.3942 216.534 77.8188 218.565 77.8188C220.047 77.8188 221.439 78.1321 222.742 78.7587C224.045 79.3853 225.073 80.1973 225.827 81.1948L222.493 84.1872C221.305 82.6654 220.008 81.9045 218.603 81.9045C217.875 81.9045 217.313 82.0644 216.917 82.3841C216.534 82.7038 216.342 83.145 216.342 83.7076C216.342 84.1552 216.508 84.5516 216.84 84.8969C217.185 85.2294 217.626 85.5171 218.162 85.7601C218.712 85.9903 219.312 86.2269 219.963 86.4698C220.628 86.7 221.286 86.9814 221.937 87.3138C222.588 87.6335 223.182 88.0172 223.719 88.4648C224.268 88.8996 224.709 89.4814 225.041 90.2103C225.386 90.9392 225.558 91.7832 225.558 92.7423C225.52 94.7373 224.811 96.3102 223.432 97.4611C222.052 98.612 220.379 99.1875 218.411 99.1875C215.18 99.1875 212.542 97.9662 210.498 95.5237Z" fill="#253472"/>
<path d="M228.969 93.1835C228.969 91.649 229.537 90.3446 230.674 89.2704C231.824 88.1834 233.453 87.4673 235.56 87.122L241.538 86.1054V85.5875C241.538 84.5516 241.187 83.7268 240.484 83.113C239.782 82.4864 238.862 82.1731 237.725 82.1731C236.755 82.1731 235.886 82.3777 235.12 82.7869C234.353 83.1833 233.746 83.7652 233.299 84.5325L229.601 81.7511C230.495 80.5106 231.658 79.5451 233.088 78.8546C234.519 78.164 236.116 77.8188 237.879 77.8188C240.638 77.8188 242.771 78.5477 244.278 80.0055C245.798 81.4506 246.558 83.3112 246.558 85.5875V98.401H241.538V96.5596C240.9 97.3524 240.044 97.9854 238.971 98.4586C237.911 98.9445 236.806 99.1875 235.656 99.1875C233.651 99.1875 232.035 98.6504 230.808 97.5762C229.582 96.502 228.969 95.0378 228.969 93.1835ZM233.912 92.9725C233.912 93.6119 234.161 94.1426 234.66 94.5646C235.171 94.9739 235.841 95.1785 236.672 95.1785C238.754 95.1785 240.376 94.2513 241.538 92.3971V89.6732L236.863 90.4981C234.896 90.8178 233.912 91.6426 233.912 92.9725Z" fill="#253472"/>
<path d="M252.038 93.8357C251.246 92.2244 250.85 90.4469 250.85 88.5031C250.85 86.5594 251.246 84.7882 252.038 83.1897C252.83 81.5784 253.999 80.2804 255.545 79.2958C257.09 78.3111 258.872 77.8188 260.891 77.8188C263.343 77.8188 265.387 78.5349 267.022 79.9671V68.9375H272.042V98.401H267.022V97.0199C265.374 98.465 263.33 99.1875 260.891 99.1875C258.872 99.1875 257.09 98.6952 255.545 97.7105C253.999 96.7258 252.83 95.4342 252.038 93.8357ZM257.576 84.2064C256.567 85.3189 256.062 86.7512 256.062 88.5031C256.062 90.2551 256.567 91.6873 257.576 92.7999C258.598 93.9125 259.939 94.4687 261.599 94.4687C263.886 94.4687 265.693 93.4904 267.022 91.5339V85.4724C265.681 83.5158 263.873 82.5375 261.599 82.5375C259.939 82.5375 258.598 83.0938 257.576 84.2064Z" fill="#253472"/>
<path d="M276.602 88.5031C276.602 86.5338 276.992 84.7499 277.771 83.1514C278.55 81.5401 279.719 80.2485 281.277 79.2766C282.836 78.3047 284.662 77.8188 286.757 77.8188C289.478 77.8188 291.675 78.65 293.349 80.3124C295.022 81.9621 295.859 84.0913 295.859 86.7C295.859 87.6847 295.756 88.6246 295.552 89.5198H281.699C281.852 91.1438 282.459 92.4163 283.519 93.337C284.579 94.2449 285.959 94.6989 287.658 94.6989C288.718 94.6989 289.682 94.4943 290.551 94.0851C291.42 93.6631 292.122 93.0876 292.659 92.3587L296.223 95.1785C295.29 96.4317 294.077 97.4164 292.582 98.1325C291.088 98.8358 289.421 99.1875 287.581 99.1875C285.87 99.1875 284.311 98.9062 282.906 98.3435C281.501 97.768 280.345 96.9944 279.438 96.0225C278.531 95.0378 277.828 93.9061 277.33 92.6273C276.845 91.3357 276.602 89.961 276.602 88.5031ZM282.025 85.7601H290.915C290.877 84.7115 290.487 83.8227 289.746 83.0938C289.005 82.3521 288.009 81.9813 286.757 81.9813C284.254 81.9813 282.676 83.2409 282.025 85.7601Z" fill="#253472"/>
<path d="M300.074 89.5965V78.6052H305.094V89.8459C305.094 91.3037 305.458 92.4418 306.186 93.2603C306.927 94.0659 307.974 94.4687 309.328 94.4687C310.67 94.4687 311.704 94.0595 312.432 93.2411C313.173 92.4226 313.544 91.2909 313.544 89.8459V78.6052H318.564V89.5965C318.564 92.5633 317.74 94.9035 316.092 96.6171C314.457 98.3307 312.19 99.1875 309.29 99.1875C306.403 99.1875 304.142 98.3371 302.507 96.6363C300.885 94.9227 300.074 92.5761 300.074 89.5965Z" fill="#253472"/>
<path d="M324.082 98.401V78.6052H329.064V80.5618C330.584 78.9889 332.321 78.2024 334.276 78.2024C334.825 78.2024 335.4 78.2983 336 78.4901V83.7076C335.259 83.5286 334.531 83.4391 333.816 83.4391C332.704 83.4391 331.74 83.6885 330.922 84.1872C330.118 84.6859 329.498 85.2869 329.064 85.9903V98.401H324.082Z" fill="#253472"/>
</svg>
